<svg width="103" height="103" viewBox="0 0 103 103" fill="none" xmlns="http://www.w3.org/2000/svg">
<g opacity="0.1" clip-path="url(#clip0)">
<path d="M72.8855 1.06073C72.4995 0.653733 71.9711 0.410156 71.4225 0.410156H38.6082C33.2036 0.410156 28.6923 4.37197 27.7982 9.53299C23.2473 10.326 19.6707 13.922 18.8785 18.4535C13.6163 19.2659 9.57275 23.8378 9.57275 29.3234V91.377C9.57275 97.4322 14.4692 102.41 20.5244 102.41H65.063C70.4676 102.41 74.9586 98.4679 75.873 93.3069C80.5259 92.5964 84.2239 88.9389 85.0161 84.3063C90.1771 83.4121 94.0984 78.9017 94.0984 73.4761V24.2238C94.0984 23.6954 93.9156 23.1873 93.5498 22.8013L72.8855 1.06073ZM73.3734 7.58282L87.353 22.1515H78.3313C75.6489 22.1515 73.3734 19.9974 73.3734 17.315V7.58282ZM65.063 98.3465H20.5244C16.7042 98.3465 13.6365 95.1972 13.6365 91.377V29.3242C13.6365 26.1538 15.6684 23.4721 18.7158 22.6597V82.437C18.7158 88.4922 23.613 93.4704 29.6674 93.4704H71.6668C70.7929 96.3147 68.1719 98.3465 65.063 98.3465ZM74.2069 89.4066H29.6674C25.8682 89.4066 22.7796 86.2572 22.7796 82.437V20.3834C22.7796 17.2745 24.8115 14.6535 27.6558 13.7796V73.4971C27.6558 79.5515 32.553 84.5296 38.6082 84.5296H80.8099C79.9368 87.3747 77.315 89.4066 74.2069 89.4066ZM83.1468 80.4659H38.6082C34.8082 80.4659 31.7203 77.3165 31.7203 73.4963V11.4435C31.7203 7.64352 34.788 4.47391 38.6082 4.47391H69.3097V17.315C69.3097 22.2527 73.3937 26.2152 78.3313 26.2152H90.0347V73.4963C90.0347 77.3165 86.967 80.4659 83.1468 80.4659Z" fill="black"/>
<path d="M77.6001 67.4629H44.1554C43.0379 67.4629 42.1235 68.3773 42.1235 69.4948C42.1235 70.6123 43.0379 71.5266 44.1554 71.5266H77.6203C78.7378 71.5266 79.6522 70.6123 79.6522 69.4948C79.6522 68.3773 78.7378 67.4629 77.6001 67.4629Z" fill="black"/>
<path d="M69.1878 41.4549H62.8081V35.1764C62.8081 34.0589 61.8938 33.1445 60.7763 33.1445C59.6588 33.1445 58.7444 34.0589 58.7444 35.1764V41.4549H52.567C51.4495 41.4549 50.5352 42.3693 50.5352 43.4868C50.5352 44.6043 51.4495 45.5187 52.567 45.5187H58.7444V51.7972C58.7444 52.9147 59.6588 53.8291 60.7763 53.8291C61.8938 53.8291 62.8081 52.9147 62.8081 51.7972V45.5187H69.1878C70.3061 45.5187 71.2197 44.6043 71.2197 43.4868C71.2197 42.3693 70.3061 41.4549 69.1878 41.4549Z" fill="black"/>
<path d="M60.8771 22.7812C49.4586 22.7812 40.1724 32.0667 40.1724 43.486C40.1724 54.9053 49.4586 64.1908 60.8771 64.1908C72.2964 64.1908 81.5827 54.9053 81.5827 43.486C81.5827 32.0667 72.2964 22.7812 60.8771 22.7812ZM60.8771 60.127C51.6936 60.127 44.2361 52.6703 44.2361 43.486C44.2361 34.3025 51.6936 26.845 60.8771 26.845C70.0614 26.845 77.5181 34.3025 77.5181 43.486C77.5181 52.6703 70.0614 60.127 60.8771 60.127Z" fill="black"/>
</g>
<defs>
<clipPath id="clip0">
<rect width="102" height="102" fill="white" transform="translate(0.806641 0.609375)"/>
</clipPath>
</defs>
</svg>
