<svg width="85" height="85" viewBox="0 0 85 85" fill="none" xmlns="http://www.w3.org/2000/svg">
<g opacity="0.1" clip-path="url(#clip0)">
<path d="M54.9331 1.09451C54.5479 0.688843 54.0199 0.445312 53.4726 0.445312H20.7042C14.6576 0.445312 9.6665 5.41654 9.6665 11.4625V73.4276C9.6665 79.4742 14.6576 84.4455 20.7042 84.4455H65.1793C71.2259 84.4455 76.217 79.4742 76.217 73.4276V24.2248C76.217 23.6974 75.9735 23.1904 75.6287 22.8046L54.9331 1.09451ZM55.5214 7.60768L69.3796 22.1554H60.3709C57.6927 22.1554 55.5214 20.0047 55.5214 17.3265V7.60768ZM65.1793 80.3875H20.7042C16.9103 80.3875 13.7245 77.2427 13.7245 73.4276V11.4625C13.7245 7.66856 16.8898 4.5033 20.7042 4.5033H51.4634V17.3265C51.4634 22.2567 55.4407 26.2134 60.3709 26.2134H72.159V73.4276C72.159 77.2427 68.9938 80.3875 65.1793 80.3875Z" fill="black"/>
<path d="M59.6399 66.3867H26.2429C25.1271 66.3867 24.2139 67.2993 24.2139 68.4157C24.2139 69.5315 25.1271 70.4447 26.2429 70.4447H59.6604C60.7762 70.4447 61.6894 69.5315 61.6894 68.4157C61.6894 67.2993 60.7762 66.3867 59.6399 66.3867Z" fill="black"/>
<path d="M29.1439 60.3016C29.3471 60.3016 29.5502 60.2612 29.7528 60.1997L41.2775 56.5679C41.582 56.4666 41.8659 56.3045 42.1094 56.061L60.2082 37.9013C60.9997 37.1098 60.9997 35.8319 60.2082 35.0404L52.3761 27.2084C51.5847 26.4175 50.3068 26.4175 49.5153 27.2084L31.3556 45.3277C31.1326 45.5507 30.9499 45.8346 30.8487 46.1595L27.1963 57.6638C26.9733 58.3944 27.156 59.1653 27.7039 59.7126C28.0891 60.0984 28.6165 60.3016 29.1439 60.3016ZM33.7095 50.5418L36.8748 53.7071L32.249 55.1682L33.7095 50.5418ZM50.9355 31.5099L55.9067 36.4811L40.6687 51.7594L35.6571 46.7478L50.9355 31.5099Z" fill="black"/>
</g>
<defs>
<clipPath id="clip0">
<rect width="84" height="84" fill="white" transform="translate(0.806641 0.609375)"/>
</clipPath>
</defs>
</svg>
