<svg width="83" height="48" viewBox="0 0 83 48" fill="none" xmlns="http://www.w3.org/2000/svg">
<g opacity="0.2">
<path d="M25.5856 33.877C21.6962 33.877 18.532 37.0411 18.532 40.9305C18.532 44.8199 21.6962 47.9841 25.5856 47.9841C29.475 47.9841 32.6391 44.8199 32.6391 40.9305C32.6391 37.0411 29.475 33.877 25.5856 33.877ZM25.5856 44.7779C23.4642 44.7779 21.7382 43.0519 21.7382 40.9305C21.7382 38.8092 23.4642 37.0831 25.5856 37.0831C27.7069 37.0831 29.433 38.8092 29.433 40.9305C29.433 43.0519 27.7069 44.7779 25.5856 44.7779Z" fill="black"/>
<path d="M73.6942 0.814453H65.4782C64.5928 0.814453 63.8751 1.53215 63.8751 2.41754C63.8751 3.30292 64.5928 4.02063 65.4782 4.02063H73.6942C76.2577 4.02063 78.4207 5.76158 79.0669 8.12292H65.4782C64.5928 8.12292 63.8751 8.84062 63.8751 9.72601V24.1402C63.8751 25.0255 64.5928 25.7432 65.4782 25.7432H79.2648V39.3557H74.561C73.8438 36.2218 71.0348 33.8759 67.6866 33.8759C64.3384 33.8759 61.5295 36.2217 60.8123 39.3557H60.669V9.74012C60.669 8.85473 59.9513 8.13703 59.0659 8.13703H46.2412C45.3558 8.13703 44.6381 8.85473 44.6381 9.74012V22.6164H14.8741C13.9887 22.6164 13.271 23.3341 13.271 24.2195C13.271 25.1049 13.9887 25.8226 14.8741 25.8226H44.6381V39.3554H36.4624C35.577 39.3554 34.8593 40.0731 34.8593 40.9585C34.8593 41.8438 35.577 42.5615 36.4624 42.5615H60.8258C61.5645 45.6661 64.3591 47.9827 67.6866 47.9827C71.0142 47.9827 73.8088 45.6661 74.5475 42.5615H80.8679C81.7532 42.5615 82.4709 41.8438 82.4709 40.9585V9.59119C82.4709 4.75163 78.5338 0.814453 73.6942 0.814453ZM57.4628 23.7529H56.4495C55.5641 23.7529 54.8464 24.4706 54.8464 25.3559C54.8464 26.2413 55.5641 26.959 56.4495 26.959H57.4628V39.3554H47.8443V11.3432H57.4628V23.7529ZM67.6865 44.7767C65.5651 44.7767 63.8391 43.0506 63.8391 40.9293C63.8391 38.8079 65.5651 37.0819 67.6865 37.0819C69.8078 37.0819 71.5339 38.8079 71.5339 40.9293C71.5339 43.0506 69.808 44.7767 67.6865 44.7767ZM79.2648 22.5369H67.0813V11.3289H79.2648V22.5369Z" fill="black"/>
<path d="M60.2025 1.28416C59.9044 0.985983 59.4908 0.814453 59.0692 0.814453C58.6475 0.814453 58.2339 0.985983 57.9358 1.28416C57.6376 1.58233 57.4661 1.99593 57.4661 2.41754C57.4661 2.83915 57.6376 3.25275 57.9358 3.55092C58.2339 3.8491 58.6475 4.02063 59.0692 4.02063C59.4908 4.02063 59.9044 3.8491 60.2025 3.55092C60.5007 3.25275 60.6722 2.83915 60.6722 2.41754C60.6722 1.99593 60.5007 1.58233 60.2025 1.28416Z" fill="black"/>
<path d="M52.6571 0.814453H9.17322C4.77852 0.814453 1.12845 4.0615 0.494593 8.28243C0.432233 8.45348 0.396484 8.63735 0.396484 8.82988V40.9585C0.396484 41.8438 1.11419 42.5615 1.99957 42.5615H14.0673C14.9527 42.5615 15.6704 41.8438 15.6704 40.9585C15.6704 40.0731 14.9527 39.3555 14.0673 39.3555H3.60266V19.4103H9.05315C9.93853 19.4103 10.6562 18.6926 10.6562 17.8072V8.82988C10.6562 7.9445 9.93853 7.2268 9.05315 7.2268H4.13071C5.02171 5.33419 6.94637 4.02063 9.17306 4.02063H52.6571C53.5425 4.02063 54.2602 3.30292 54.2602 2.41754C54.2602 1.53215 53.5425 0.814453 52.6571 0.814453ZM7.45006 10.433V16.2041H3.60266V10.433H7.45006Z" fill="black"/>
<path d="M10.1808 23.0869C9.88263 22.7887 9.46903 22.6172 9.04742 22.6172C8.62581 22.6172 8.21221 22.7887 7.91404 23.0869C7.61587 23.3851 7.44434 23.7987 7.44434 24.2203C7.44434 24.6435 7.61587 25.0555 7.91404 25.3537C8.21221 25.6534 8.62581 25.8234 9.04742 25.8234C9.46903 25.8234 9.88263 25.6534 10.1808 25.3537C10.479 25.0555 10.6505 24.6419 10.6505 24.2203C10.6505 23.7987 10.479 23.3851 10.1808 23.0869Z" fill="black"/>
<path d="M39.8306 7.22656H30.8533C29.9679 7.22656 29.2502 7.94426 29.2502 8.82965V17.8069C29.2502 18.6923 29.9679 19.41 30.8533 19.41H39.8306C40.716 19.41 41.4337 18.6923 41.4337 17.8069V8.82965C41.4337 7.94426 40.716 7.22656 39.8306 7.22656ZM38.2275 16.2038H32.4564V10.4327H38.2275V16.2038Z" fill="black"/>
<path d="M24.4461 7.22656H15.4688C14.5834 7.22656 13.8657 7.94426 13.8657 8.82965V17.8069C13.8657 18.6923 14.5834 19.41 15.4688 19.41H24.4461C25.3315 19.41 26.0492 18.6923 26.0492 17.8069V8.82965C26.0492 7.94426 25.3315 7.22656 24.4461 7.22656ZM22.843 16.2038H17.0719V10.4327H22.843V16.2038Z" fill="black"/>
</g>
</svg>
