<svg width="33" height="33" viewBox="0 0 33 33" fill="none" xmlns="http://www.w3.org/2000/svg">
<g clip-path="url(#clip0)">
<path d="M3.25588 4.81445H29.2558C30.9102 4.81445 32.2559 6.16016 32.2559 7.81447V25.8145C32.2559 27.4688 30.9102 28.8145 29.2558 28.8145H3.25588C1.60157 28.8145 0.255859 27.4688 0.255859 25.8145V7.81447C0.255859 6.16016 1.60157 4.81445 3.25588 4.81445ZM3.25588 6.81444C3.12001 6.81444 2.99076 6.84263 2.87259 6.89186L16.2559 18.4912L29.6392 6.89186C29.521 6.8427 29.3918 6.81444 29.2559 6.81444H3.25588ZM3.25588 26.8144H29.2558C29.8076 26.8144 30.2559 26.3662 30.2559 25.8144V9.00488L16.9111 20.5703C16.7226 20.7334 16.4893 20.8145 16.2559 20.8145C16.0225 20.8145 15.7891 20.7334 15.6006 20.5703L2.25585 9.00488V25.8145C2.25592 26.3662 2.70413 26.8144 3.25588 26.8144Z" fill="#153AB2"/>
</g>
<defs>
<clipPath id="clip0">
<rect width="32" height="32" fill="white" transform="matrix(-1 0 0 1 32.2559 0.814453)"/>
</clipPath>
</defs>
</svg>
