<svg width="31" height="41" viewBox="0 0 31 41" fill="none" xmlns="http://www.w3.org/2000/svg">
<path d="M29.4998 16.1416C29.4998 22.1624 25.912 28.0999 22.1681 32.628C20.3128 34.872 18.4549 36.7273 17.0604 38.0216C16.3637 38.6681 15.7844 39.1731 15.381 39.5151C15.3799 39.516 15.3789 39.5169 15.3778 39.5178C15.3768 39.5169 15.3757 39.516 15.3747 39.5151C14.9713 39.1731 14.3919 38.6681 13.6953 38.0216C12.3007 36.7273 10.4428 34.872 8.58753 32.628C4.84366 28.0999 1.25586 22.1624 1.25586 16.1416C1.25586 8.21617 7.59113 1.81445 15.3778 1.81445C23.1645 1.81445 29.4998 8.21617 29.4998 16.1416Z" stroke="#153AB2" stroke-width="2"/>
<circle cx="15.3793" cy="14.9606" r="5.34146" stroke="#153AB2" stroke-width="2"/>
</svg>
