<svg width="40" height="41" viewBox="0 0 40 41" fill="none" xmlns="http://www.w3.org/2000/svg">
<g clip-path="url(#clip0)">
<path d="M10.8101 26.0082C11.4011 25.1757 12.1868 24.6607 13.081 24.5276C13.9679 24.3955 14.8757 24.6509 15.7125 25.2708L18.3293 27.2029C18.5018 27.074 18.6753 26.9524 18.8416 26.8318C19.0819 26.6633 19.3088 26.5042 19.4986 26.3433C21.4311 24.6698 23.1078 22.6143 24.6278 20.0514C25.3595 18.7778 25.8224 17.7286 26.1173 16.6896C25.4455 16.2368 24.8137 15.756 24.1995 15.2946C23.9676 15.1228 23.7345 14.9438 23.5025 14.7719C21.7627 13.4831 21.4707 11.5218 22.7595 9.78198L24.4349 7.52025C24.6251 7.26343 24.8215 6.99832 25.0035 6.73535C25.3695 6.22385 25.7551 5.6947 26.1594 5.19225C26.7558 4.39584 27.5375 3.90352 28.4172 3.77252C29.2969 3.64151 30.2026 3.88256 31.0267 4.46742C31.035 4.47356 31.035 4.47356 31.0433 4.47969L33.8633 6.58793C34.9238 7.37347 35.6177 8.41998 35.9274 9.70797C36.414 11.7878 36.086 13.8415 35.8012 15.1959C35.1023 18.521 33.7922 21.7013 31.6551 25.2185C29.0583 29.4601 25.7017 33.0041 21.6732 35.7489C20.1317 36.7819 18.0565 38.0417 15.6068 38.5687C15.4564 38.5985 15.2989 38.6293 15.1547 38.6508C13.4889 38.8988 12.0009 38.5086 10.7277 37.4821C10.7183 37.4687 10.7028 37.4637 10.6935 37.4503C10.2508 37.0519 9.75698 36.7053 9.23719 36.3331C8.8831 36.0836 8.51964 35.8208 8.16125 35.5424C7.33677 34.906 6.83295 34.0966 6.70087 33.2096C6.56771 32.3155 6.82211 31.4005 7.44302 30.5709L10.8101 26.0082ZM9.35936 33.9857C9.36657 33.9846 9.36765 33.9918 9.35936 33.9857C9.68568 34.2467 10.0149 34.4777 10.3701 34.7344C10.9054 35.1117 11.4511 35.5095 11.9766 35.9693C12.8208 36.6397 13.7337 36.8796 14.8586 36.7121C14.9668 36.696 15.0821 36.6788 15.1892 36.6555C17.3104 36.1996 19.1761 35.0667 20.5624 34.1306C24.3496 31.547 27.5157 28.2083 29.9644 24.2098C31.9819 20.88 33.218 17.895 33.8687 14.7908C34.2719 12.8955 34.3088 11.46 34.0041 10.1565C33.8064 9.32361 33.3777 8.67248 32.6901 8.1631L29.865 6.07036C29.4623 5.79127 29.0604 5.66684 28.6927 5.72161C28.2384 5.78926 27.9115 6.11803 27.7151 6.38315C27.7089 6.39143 27.7028 6.39972 27.6967 6.408C27.318 6.88452 26.9631 7.37225 26.5909 7.89204C26.4017 8.15607 26.2054 8.42118 26.01 8.69351L24.3346 10.9552C23.6841 11.8334 23.7893 12.5401 24.6675 13.1906C24.9078 13.3686 25.1408 13.5476 25.38 13.7184C26.0781 14.2483 26.7408 14.7393 27.4519 15.2083C27.4685 15.2206 27.484 15.2257 27.4934 15.239C28.2058 15.7668 28.1807 16.3897 28.1121 16.82C28.1081 16.8427 28.1041 16.8655 28.1001 16.8882C27.7728 18.2047 27.2257 19.4802 26.3369 21.0351L26.3308 21.0434C24.7057 23.7915 22.8919 26.0149 20.7951 27.8234C20.5274 28.0549 20.2471 28.2514 19.9802 28.4386C19.7399 28.607 19.513 28.7661 19.3232 28.9271C19.2965 28.9458 19.2709 28.9717 19.2442 28.9904C19.0173 29.1495 18.7951 29.2416 18.5571 29.277C17.9586 29.3661 17.5278 29.047 17.387 28.9427L14.5536 26.8438C14.2719 26.6351 13.8385 26.3975 13.3842 26.4651C12.9372 26.5317 12.6113 26.8677 12.4243 27.1462C12.4181 27.1544 12.4181 27.1544 12.412 27.1627L9.03047 31.7276C8.39727 32.5737 8.51002 33.3309 9.35936 33.9857Z" fill="#153AB2"/>
<path d="M17.4055 11.6989C15.5635 12.2975 13.9804 13.4472 12.8144 15.0213C11.6483 16.5954 11.017 18.4437 10.9738 20.3813C10.9654 20.869 10.6038 21.2619 10.135 21.3317C10.0774 21.3403 10.0258 21.3406 9.96705 21.342C9.42055 21.3349 8.99205 20.8828 8.99912 20.3363C9.04811 17.9924 9.81941 15.7474 11.2248 13.8502C12.6302 11.953 14.5531 10.5611 16.7809 9.83127C17.3016 9.66527 17.8518 9.94451 18.0239 10.4569C18.1961 10.9694 17.9262 11.5329 17.4055 11.6989Z" fill="#153AB2"/>
<path d="M2.77874 20.9758C2.85998 17.1162 4.12379 13.4269 6.4436 10.2952C8.76341 7.16361 11.9244 4.87967 15.5929 3.67736C16.1054 3.50523 16.6566 3.79168 16.8287 4.30412C16.9947 4.82484 16.7155 5.37501 16.1958 5.54821C12.9204 6.61827 10.0931 8.66825 8.0177 11.4613C5.94337 14.2615 4.81335 17.5624 4.74409 21.0075C4.73564 21.4952 4.37402 21.8881 3.90531 21.9579C3.84762 21.9665 3.79607 21.9668 3.73731 21.9682C3.1991 21.9673 2.76339 21.5162 2.77874 20.9758Z" fill="#153AB2"/>
</g>
<defs>
<clipPath id="clip0">
<rect width="34.5424" height="34.5424" fill="white" transform="matrix(-0.989093 0.147292 0.147292 0.989093 34.6816 0.953125)"/>
</clipPath>
</defs>
</svg>
