<svg width="82" height="44" viewBox="0 0 82 44" fill="none" xmlns="http://www.w3.org/2000/svg">
<g opacity="0.2">
<path d="M81.1824 22.757L73.2014 16.7164L66.7734 4.29716C65.6616 2.14902 63.4777 0.814453 61.0742 0.814453H9.21242C4.35131 0.814613 0.396484 4.80165 0.396484 9.7018V36.3831C0.396484 37.2683 1.10844 37.9862 1.98675 37.9862H8.24999C8.97229 41.1055 11.7516 43.4367 15.0627 43.4367C18.921 43.4367 22.0598 40.2725 22.0598 36.3831C22.0598 32.4937 18.921 29.3295 15.0627 29.3295C11.7516 29.3295 8.97229 31.6607 8.24999 34.78H3.57701V19.3836H34.5629V34.78H32.6788C31.8005 34.78 31.0885 35.4979 31.0885 36.3831C31.0885 37.2683 31.8005 37.9862 32.6788 37.9862H55.421C56.1433 41.1055 58.9226 43.4367 62.2336 43.4367C65.5447 43.4367 68.324 41.1055 69.0463 37.9862H80.2276C81.1059 37.9862 81.8179 37.2683 81.8179 36.3831V24.0393C81.8179 23.5348 81.5825 23.06 81.1824 22.757ZM15.0627 32.5357C17.1671 32.5357 18.8793 34.2617 18.8793 36.3831C18.8793 38.5044 17.1671 40.2305 15.0627 40.2305C12.9583 40.2305 11.246 38.5044 11.246 36.3831C11.246 34.2616 12.9581 32.5357 15.0627 32.5357ZM17.4797 16.1773H3.57701V9.7018C3.57701 6.56937 6.10489 4.02095 9.21242 4.02095H17.4797V16.1773ZM34.5629 16.1773H20.6602V4.02095H34.5629V16.1773ZM49.8294 34.7797H37.7435V21.0034H41.1072C41.9855 21.0034 42.6974 20.2855 42.6974 19.4003C42.6974 18.5151 41.9855 17.7972 41.1072 17.7972H37.7435V4.02079H49.8294V34.7797ZM62.2335 40.2305C60.1291 40.2305 58.4169 38.5044 58.4169 36.3831C58.4169 34.2617 60.1291 32.5357 62.2335 32.5357C64.3379 32.5357 66.0501 34.2617 66.0501 36.3831C66.0501 38.5044 64.338 40.2305 62.2335 40.2305ZM78.6374 34.7797H69.0462V34.7798C68.3239 31.6606 65.5446 29.3293 62.2335 29.3293C58.9224 29.3293 56.1431 31.6606 55.4208 34.7798H53.01V4.02095H61.0742C62.2885 4.02095 63.392 4.6952 63.9537 5.78065L69.3348 16.1773H64.007C63.1286 16.1773 62.4167 16.8952 62.4167 17.7804C62.4167 18.6656 63.1286 19.3835 64.007 19.3835H71.4276L75.4608 22.4361H73.8666C72.9883 22.4361 72.2763 23.1539 72.2763 24.0392V30.4515C72.2763 31.3367 72.9883 32.0546 73.8666 32.0546H78.6374V34.7797ZM78.6374 28.8486H75.4568V25.6424H78.6374V28.8486Z" fill="black"/>
<path d="M27.915 35.2493C27.6192 34.9513 27.2089 34.7812 26.7907 34.7812C26.3725 34.7812 25.9622 34.9513 25.6664 35.2493C25.3706 35.5491 25.2004 35.9611 25.2004 36.3843C25.2004 36.8059 25.3706 37.2195 25.6664 37.5177C25.9622 37.8159 26.3725 37.9874 26.7907 37.9874C27.2089 37.9874 27.6192 37.8161 27.915 37.5177C28.2108 37.2194 28.381 36.8059 28.381 36.3843C28.381 35.961 28.2108 35.5491 27.915 35.2493Z" fill="black"/>
<path d="M59.247 16.6455C58.9513 16.3473 58.541 16.1758 58.1227 16.1758C57.7045 16.1758 57.2942 16.3473 56.9984 16.6455C56.7026 16.9453 56.5325 17.3573 56.5325 17.7805C56.5325 18.2022 56.7026 18.6141 56.9984 18.9124C57.2942 19.2122 57.7045 19.3836 58.1227 19.3836C58.541 19.3836 58.9513 19.2122 59.247 18.9124C59.5428 18.6142 59.713 18.2022 59.713 17.7805C59.713 17.3573 59.5428 16.9453 59.247 16.6455Z" fill="black"/>
</g>
</svg>
