<svg width="98" height="76" viewBox="0 0 98 76" fill="none" xmlns="http://www.w3.org/2000/svg">
<g opacity="0.2">
<path d="M89.4785 68.5609H95.9572C96.8516 68.5609 97.5769 67.8387 97.5769 66.9479V47.5918C97.5769 47.4595 97.5602 47.3279 97.5286 47.1996L92.6696 27.8434C92.4885 27.1259 91.8408 26.6226 91.0982 26.6226H64.5649L61.7819 21.0629C61.5067 20.5132 60.9412 20.1674 60.3244 20.1706H52.8967L59.8499 13.246C60.4818 12.6159 60.4818 11.5952 59.8499 10.9651L52.8967 4.04048H82.9998C83.8943 4.04048 84.6195 3.31824 84.6195 2.42746C84.6195 1.53669 83.8943 0.814453 82.9998 0.814453H14.9735C14.0791 0.814453 13.3539 1.53669 13.3539 2.42746C13.3539 3.31824 14.0791 4.04048 14.9735 4.04048H45.0767L38.1235 10.9651C37.4916 11.5952 37.4916 12.6159 38.1235 13.246L45.0767 20.1706H37.649C37.0353 20.1706 36.4737 20.5156 36.1993 21.0629L33.4084 26.6226H6.87518C6.13256 26.6226 5.48485 27.1259 5.30374 27.8434L0.444727 47.1996C0.413092 47.3279 0.396484 47.4595 0.396484 47.5918V66.9479C0.396484 67.8387 1.1217 68.5609 2.01616 68.5609H8.49485C8.49485 72.124 11.3957 75.013 14.9735 75.013C18.5514 75.013 21.4522 72.124 21.4522 68.5609H24.6916C24.6916 72.124 27.5924 75.013 31.1703 75.013C34.7481 75.013 37.649 72.124 37.649 68.5609H60.3244C60.3244 72.124 63.2252 75.013 66.8031 75.013C70.3809 75.013 73.2818 72.124 73.2818 68.5609H76.5211C76.5211 72.124 79.422 75.013 82.9998 75.013C86.5776 75.013 89.4785 72.124 89.4785 68.5609ZM48.9867 4.70836L56.4144 12.1055L48.9867 19.5027L41.5589 12.1055L48.9867 4.70836ZM38.6502 23.3966H59.3232L60.9428 26.6226H37.0305L38.6502 23.3966ZM14.9735 71.787C13.1846 71.787 11.7342 70.3425 11.7342 68.5609H18.2129C18.2129 70.3425 16.7625 71.787 14.9735 71.787ZM23.0719 45.9788H10.5693L12.9988 36.3007H23.0719V45.9788ZM31.1703 71.787C29.3814 71.787 27.9309 70.3425 27.9309 68.5609H34.4096C34.4096 70.3425 32.9592 71.787 31.1703 71.787ZM26.3112 65.3349V36.3007H39.2686V65.3349H26.3112ZM55.4654 36.3007V45.9788H42.508V36.3007H55.4654ZM42.508 49.2048H55.4654V65.3349H42.508V49.2048ZM58.7047 65.3349V36.3007H71.6621V65.3349H58.7047ZM84.9746 36.3007L87.4041 45.9788H74.9014V36.3007H84.9746ZM66.8031 71.787C65.0142 71.787 63.5637 70.3425 63.5637 68.5609H70.0424C70.0424 70.3425 68.592 71.787 66.8031 71.787ZM74.9014 65.3349V49.2048H89.4785C89.9775 49.2048 90.4481 48.9756 90.7557 48.5842C91.0626 48.1927 91.1709 47.6816 91.0499 47.1996L87.8106 34.2955C87.6295 33.578 86.9818 33.0747 86.2391 33.0747H11.7342C10.9916 33.0747 10.3439 33.578 10.1628 34.2955L6.92342 47.1996C6.80242 47.6816 6.91076 48.1927 7.21762 48.5842C7.52526 48.9756 7.99582 49.2048 8.49485 49.2048H23.0719V65.3349H3.63583V47.7903L8.13975 29.8487H89.8336L94.3375 47.7903V65.3349H74.9014ZM82.9998 71.787C81.2109 71.787 79.7605 70.3425 79.7605 68.5609H86.2391C86.2391 70.3425 84.7887 71.787 82.9998 71.787Z" fill="black"/>
<path d="M32.3424 71.7305H4.56724C3.71508 71.7305 3.02417 72.4655 3.02417 73.372C3.02417 74.2786 3.71508 75.0136 4.56724 75.0136H94.0651C94.9173 75.0136 95.6082 74.2786 95.6082 73.372C95.6082 72.4655 94.9173 71.7305 94.0651 71.7305H32.3424Z" fill="black"/>
</g>
</svg>
