<svg width="83" height="77" viewBox="0 0 83 77" fill="none" xmlns="http://www.w3.org/2000/svg">
<g opacity="0.2">
<path d="M25.5922 62.3633C21.7027 62.3633 18.5386 65.5275 18.5386 69.4169C18.5386 73.3063 21.7027 76.4704 25.5922 76.4704C29.4816 76.4704 32.6457 73.3063 32.6457 69.4169C32.6457 65.5275 29.4816 62.3633 25.5922 62.3633ZM25.5922 73.2643C23.4708 73.2643 21.7447 71.5382 21.7447 69.4169C21.7447 67.2955 23.4708 65.5695 25.5922 65.5695C27.7135 65.5695 29.4396 67.2955 29.4396 69.4169C29.4396 71.5382 27.7137 73.2643 25.5922 73.2643Z" fill="black"/>
<path d="M67.6861 62.3633C64.3377 62.3633 61.5289 64.7091 60.8117 67.8431H43.6758C42.7906 67.8431 42.0728 68.561 42.0728 69.4462C42.0728 70.3314 42.7906 71.0493 43.6758 71.0493H60.8253C61.564 74.1538 64.3589 76.4704 67.6862 76.4704C71.5756 76.4704 74.7398 73.3063 74.7398 69.4169C74.7398 65.5275 71.5755 62.3633 67.6861 62.3633ZM67.6861 73.2643C65.5647 73.2643 63.8387 71.5382 63.8387 69.4169C63.8387 67.2955 65.5647 65.5695 67.6861 65.5695C69.8074 65.5695 71.5335 67.2955 71.5335 69.4169C71.5335 71.5382 69.8076 73.2643 67.6861 73.2643Z" fill="black"/>
<path d="M38.0786 68.3117C37.7806 68.0133 37.367 67.8418 36.9454 67.8418C36.5238 67.8418 36.1102 68.0133 35.812 68.3117C35.5138 68.6097 35.3423 69.0233 35.3423 69.4449C35.3423 69.8667 35.5137 70.2801 35.812 70.5783C36.1103 70.8764 36.5238 71.048 36.9454 71.048C37.367 71.048 37.7806 70.8766 38.0786 70.5783C38.3768 70.2801 38.5485 69.8667 38.5485 69.4449C38.5485 69.0233 38.3769 68.6097 38.0786 68.3117Z" fill="black"/>
<path d="M73.6978 29.3016H52.6571V27.3216C52.6571 24.1705 50.0934 21.6068 46.9424 21.6068H42.2701L35.2913 14.6282L45.899 4.02063H73.1766C74.0618 4.02063 74.7797 3.30276 74.7797 2.41754C74.7797 1.53232 74.0618 0.814453 73.1766 0.814453H1.99957C1.11435 0.814453 0.396484 1.53232 0.396484 2.41754C0.396484 3.30276 1.11435 4.02063 1.99957 4.02063H41.3646L31.8907 13.4945C31.2647 14.1205 31.2647 15.1356 31.8907 15.7618L37.7357 21.6068H35.9287C32.7777 21.6068 30.214 24.1705 30.214 27.3216V29.3016H9.17322C4.33382 29.3016 0.396484 33.2388 0.396484 38.0783V69.4458C0.396484 70.331 1.11435 71.0489 1.99957 71.0489H14.0673C14.9525 71.0489 15.6704 70.331 15.6704 69.4458C15.6704 68.5605 14.9525 67.8427 14.0673 67.8427H3.60266V47.9163H64.6964C66.2707 51.6236 69.948 54.2304 74.2229 54.2304H79.2683V67.8427H78.1462C77.2609 67.8427 76.5431 68.5605 76.5431 69.4458C76.5431 70.331 77.2609 71.0489 78.1462 71.0489H80.8714C81.7566 71.0489 82.4745 70.331 82.4745 69.4458V38.0783C82.4745 33.2388 78.5372 29.3016 73.6978 29.3016ZM33.4201 27.3216C33.4201 25.9383 34.5454 24.813 35.9286 24.813H46.9423C48.3256 24.813 49.4508 25.9385 49.4508 27.3216V29.3016H33.4201V27.3216ZM13.0929 44.7102H3.60266V38.0783C3.60266 35.0067 6.10155 32.5078 9.17322 32.5078H13.0929V44.7102ZM25.7894 44.7102H16.2991V32.5078H25.7894V44.7102ZM38.4858 44.7102H28.9955V32.5078H38.4858V44.7102ZM51.1823 44.7102H41.692V32.5078H51.054H51.1823V44.7102ZM54.3884 44.7103V32.5078H63.8787V43.8862C63.8787 44.1638 63.893 44.4381 63.9144 44.7103H54.3884ZM79.2683 51.0242H74.2228C70.2869 51.0242 67.0849 47.8221 67.0849 43.8862V32.5078H73.6978C76.7694 32.5078 79.2683 35.0067 79.2683 38.0783V51.0242Z" fill="black"/>
<path d="M82.0041 1.28416C81.7061 0.985983 81.2925 0.814453 80.8709 0.814453C80.4493 0.814453 80.0357 0.985823 79.7375 1.28416C79.4394 1.58217 79.2678 1.99577 79.2678 2.41754C79.2678 2.83915 79.4392 3.25275 79.7375 3.55076C80.0357 3.84893 80.4493 4.02062 80.8709 4.02062C81.2925 4.02062 81.7061 3.84909 82.0041 3.55076C82.3023 3.25275 82.474 2.83915 82.474 2.41754C82.474 1.99577 82.3025 1.58217 82.0041 1.28416Z" fill="black"/>
</g>
</svg>
