<svg width="82" height="82" viewBox="0 0 82 82" fill="none" xmlns="http://www.w3.org/2000/svg">
<path d="M41 82C18.3917 82 0 63.6083 0 41C0 18.3917 18.3917 0 41 0C63.6083 0 82 18.3917 82 41C82 63.6083 63.6083 82 41 82ZM41 5.125C21.2176 5.125 5.125 21.2176 5.125 41C5.125 60.7824 21.2176 76.875 41 76.875C60.7824 76.875 76.875 60.7824 76.875 41C76.875 21.2176 60.7824 5.125 41 5.125Z" fill="#B5B9BC"/>
<path d="M58.9375 63.2081C58.2812 63.2081 57.6256 62.9585 57.1264 62.4561L39.1889 44.5186C38.7071 44.0369 38.4375 43.3844 38.4375 42.7081V18.791C38.4375 17.3765 39.5855 16.2285 41 16.2285C42.4145 16.2285 43.5625 17.3765 43.5625 18.791V41.6452L60.7486 58.8313C61.7496 59.8323 61.7496 61.4551 60.7486 62.4561C60.2494 62.9585 59.5938 63.2081 58.9375 63.2081Z" fill="#B5B9BC"/>
</svg>
