<svg width="35" height="21" viewBox="0 0 35 21" fill="none" xmlns="http://www.w3.org/2000/svg">
<path d="M0.712284 11.0669L0.365353 10.5006L0.712284 9.93406C0.770435 9.83949 2.16607 7.58684 4.87744 5.32938C8.48366 2.32726 12.7321 0.740234 17.1637 0.740234C21.5942 0.740234 25.8531 2.32641 29.4799 5.32713C32.2068 7.58345 33.6183 9.83441 33.677 9.92926L34.0312 10.5006L33.677 11.072C33.6183 11.1668 32.2068 13.4178 29.4799 15.6741C25.8531 18.6748 21.5942 20.261 17.1637 20.261C12.7321 20.261 8.48366 18.674 4.87744 15.6718C2.16607 13.4144 0.770435 11.1617 0.712284 11.0669ZM6.32218 14.0532C9.56623 16.7338 13.214 18.0927 17.1637 18.0927C21.1149 18.0927 24.7745 16.733 28.0405 14.0507C29.7298 12.6635 30.875 11.2588 31.4359 10.5006C30.8747 9.74182 29.7295 8.33744 28.0405 6.95028C24.7745 4.26826 21.1152 2.9082 17.1637 2.9082C13.214 2.9082 9.56651 4.26742 6.32218 6.94774C4.6406 8.33716 3.50524 9.7438 2.95195 10.5006C3.5058 11.2577 4.64088 12.6643 6.32218 14.0532Z" fill="#153AB2"/>
<path d="M17.1935 3.98633C20.7851 3.98633 23.707 6.90829 23.707 10.4998C23.707 14.0914 20.7851 17.0133 17.1935 17.0133C13.602 17.0133 10.68 14.0914 10.68 10.4998C10.68 6.90829 13.602 3.98633 17.1935 3.98633ZM17.1935 14.8454C19.5896 14.8454 21.5391 12.8959 21.5391 10.4998C21.5391 8.10377 19.5896 6.1543 17.1935 6.1543C14.7975 6.1543 12.848 8.10377 12.848 10.4998C12.848 12.8959 14.7975 14.8454 17.1935 14.8454Z" fill="#153AB2"/>
</svg>
