<svg width="47" height="48" viewBox="0 0 47 48" fill="none" xmlns="http://www.w3.org/2000/svg">
<g clip-path="url(#clip0)">
<path d="M33.4609 23.8145H27.7109C26.917 23.8145 26.2734 24.472 26.2734 25.2832V37.0332C26.2734 37.8444 26.917 38.502 27.7109 38.502H33.4609C35.0487 38.502 36.3359 37.1868 36.3359 35.5645V26.752C36.3359 25.1296 35.0487 23.8145 33.4609 23.8145ZM33.4609 35.5645H29.1484V26.752H33.4609V35.5645Z" fill="#153AB2"/>
<path d="M46.3984 26.752V23.8145H39.2109C38.417 23.8145 37.7734 24.472 37.7734 25.2832V38.502H40.6484V32.627H46.3984V29.6895H40.6484V26.752H46.3984Z" fill="#153AB2"/>
<path d="M3.27344 42.9082V4.72073C3.27344 3.90952 3.91699 3.25198 4.71094 3.25198H26.2734V9.12698C26.2734 10.7493 27.5606 12.0645 29.1484 12.0645H34.8984V16.4707H37.7734V10.5957C37.7757 10.2053 37.6256 9.83005 37.3566 9.55291L28.7316 0.740414C28.4603 0.465482 28.093 0.312273 27.7109 0.314477H4.71094C2.32918 0.314477 0.398438 2.28728 0.398438 4.72073V42.9082C0.398438 45.3418 2.32918 47.3145 4.71094 47.3145H14.7734V44.377H4.71094C3.91708 44.377 3.27344 43.7194 3.27344 42.9082Z" fill="#153AB2"/>
<path d="M21.9609 23.8145H16.2109C15.417 23.8145 14.7734 24.472 14.7734 25.2832V38.502H17.6484V34.0957H21.9609C23.5487 34.0957 24.8359 32.7805 24.8359 31.1582V26.752C24.8359 25.1296 23.5487 23.8145 21.9609 23.8145ZM21.9609 31.1582H17.6484V26.752H21.9609V31.1582Z" fill="#153AB2"/>
</g>
<defs>
<clipPath id="clip0">
<rect width="46" height="47" fill="white" transform="translate(0.398438 0.314453)"/>
</clipPath>
</defs>
</svg>
