<svg width="101" height="101" viewBox="0 0 101 101" fill="none" xmlns="http://www.w3.org/2000/svg">
<path d="M26.6787 64.4775C28.1844 62.3567 30.186 61.0447 32.4639 60.7054C34.7235 60.3689 37.0362 61.0198 39.1679 62.5989L45.8347 67.5211C46.274 67.1928 46.7161 66.8828 47.1398 66.5756C47.7519 66.1465 48.3299 65.7412 48.8134 65.3312C53.7368 61.0678 58.0082 55.8311 61.8806 49.3019C63.7446 46.0574 64.9239 43.3844 65.6752 40.7375C63.9636 39.584 62.3541 38.359 60.7895 37.1837C60.1985 36.7459 59.6048 36.2898 59.0139 35.852C54.5816 32.5687 53.8375 27.5719 57.1208 23.1397L61.3891 17.3777C61.8738 16.7234 62.3741 16.048 62.8376 15.3781C63.7703 14.075 64.7525 12.7269 65.7824 11.4469C67.3018 9.41797 69.2932 8.16374 71.5344 7.82999C73.7756 7.49624 76.0828 8.11032 78.1825 9.60032C78.2036 9.61595 78.2036 9.61595 78.2247 9.63159L85.409 15.0025C88.1106 17.0038 89.8784 19.6699 90.6674 22.9511C91.9071 28.2496 91.0714 33.4817 90.3459 36.9321C88.5654 45.4032 85.2277 53.5053 79.7832 62.4656C73.1677 73.2715 64.6163 82.3002 54.3534 89.2929C50.4264 91.9245 45.1396 95.1341 38.8987 96.4766C38.5157 96.5524 38.1143 96.631 37.7468 96.6857C33.5033 97.3176 29.7124 96.3236 26.4687 93.7083C26.4448 93.6743 26.4053 93.6614 26.3815 93.6274C25.2539 92.6123 23.9957 91.7293 22.6715 90.7811C21.7694 90.1455 20.8435 89.476 19.9305 88.7669C17.83 87.1456 16.5465 85.0834 16.21 82.8238C15.8708 80.5459 16.5189 78.2148 18.1007 76.1015L26.6787 64.4775ZM22.9828 84.8009C23.0011 84.7982 23.0039 84.8166 22.9828 84.8009C23.8141 85.4658 24.6529 86.0544 25.5577 86.7084C26.9214 87.6695 28.3117 88.683 29.6503 89.8545C31.8012 91.5622 34.1268 92.1735 36.9926 91.7468C37.2681 91.7057 37.5621 91.6619 37.8349 91.6025C43.2389 90.441 47.9918 87.555 51.5237 85.1701C61.1718 78.5882 69.2377 70.0825 75.476 59.896C80.616 51.4129 83.7649 43.8084 85.4226 35.9002C86.4499 31.0715 86.5438 27.4147 85.7676 24.0939C85.2638 21.9719 84.1718 20.3131 82.42 19.0154L75.2228 13.684C74.1968 12.973 73.1732 12.656 72.2363 12.7955C71.0789 12.9678 70.246 13.8054 69.7457 14.4808C69.7301 14.5019 69.7144 14.523 69.6988 14.5441C68.7341 15.7581 67.83 17.0006 66.8818 18.3249C66.3999 18.9975 65.8995 19.6729 65.402 20.3667L61.1337 26.1286C59.4764 28.3659 59.7445 30.1662 61.9817 31.8235C62.5938 32.2769 63.1875 32.733 63.7969 33.1681C65.5752 34.5181 67.2637 35.7689 69.0753 36.9638C69.1175 36.9951 69.157 37.008 69.1809 37.042C70.996 38.3866 70.9319 39.9734 70.7571 41.0698C70.747 41.1276 70.7368 41.1855 70.7266 41.2433C69.8929 44.5973 68.499 47.8469 66.2347 51.8082L66.219 51.8293C62.0789 58.8303 57.4581 64.4945 52.1165 69.1018C51.4345 69.6916 50.7204 70.1923 50.0402 70.6692C49.4282 71.0983 48.8501 71.5036 48.3666 71.9136C48.2986 71.9613 48.2333 72.0274 48.1653 72.075C47.5872 72.4803 47.0212 72.7149 46.415 72.8051C44.8902 73.0322 43.7927 72.2192 43.4339 71.9534L36.2156 66.6063C35.498 66.0747 34.3939 65.4693 33.2365 65.6416C32.0976 65.8112 31.2674 66.6672 30.7909 67.3766C30.7753 67.3977 30.7753 67.3977 30.7596 67.4188L22.1449 79.0483C20.5318 81.2038 20.819 83.1327 22.9828 84.8009Z" fill="#B5B9BC"/>
<path d="M43.4803 28.0245C38.7876 29.5496 34.7547 32.4786 31.7841 36.4887C28.8135 40.4989 27.205 45.2075 27.0951 50.1437C27.0736 51.3862 26.1523 52.3872 24.9582 52.565C24.8112 52.5869 24.6799 52.5877 24.5302 52.5912C23.138 52.5732 22.0463 51.4213 22.0643 50.0291C22.1891 44.0579 24.1541 38.3385 27.7344 33.5052C31.3148 28.6719 36.2135 25.1258 41.8892 23.2666C43.2158 22.8437 44.6174 23.5551 45.0559 24.8605C45.4945 26.166 44.8069 27.6016 43.4803 28.0245Z" fill="#B5B9BC"/>
<path d="M6.21792 51.6574C6.42487 41.8246 9.64456 32.4256 15.5545 24.4475C21.4644 16.4694 29.5174 10.6509 38.8633 7.58787C40.1688 7.14935 41.5731 7.87911 42.0117 9.18459C42.4345 10.5112 41.7231 11.9128 40.3993 12.354C32.0548 15.0801 24.8519 20.3026 19.5647 27.4181C14.2801 34.552 11.4013 42.9613 11.2248 51.738C11.2033 52.9806 10.282 53.9815 9.08795 54.1593C8.94099 54.1812 8.80966 54.182 8.65996 54.1855C7.28882 54.1831 6.17881 53.034 6.21792 51.6574Z" fill="#B5B9BC"/>
</svg>
