<svg width="27" height="26" viewBox="0 0 27 26" fill="none" xmlns="http://www.w3.org/2000/svg">
<path d="M23.6484 8.07422H21.0586V0H6.33203V8.07422H3.74219C2.06204 8.07422 0.695312 9.44095 0.695312 11.1211V19.3477C0.695312 21.0278 2.06204 22.3945 3.74219 22.3945H6.33203V26H21.0586V22.3945H23.6484C25.3286 22.3945 26.6953 21.0278 26.6953 19.3477V11.1211C26.6953 9.44095 25.3286 8.07422 23.6484 8.07422ZM8.36328 2.03125H19.0273V8.07422H8.36328V2.03125ZM8.36328 23.9688V17.2148H19.0273V23.9688H8.36328ZM24.6641 19.3477C24.6641 19.9076 24.2084 20.3633 23.6484 20.3633H21.0586V17.2148H22.6328V15.1836H4.75781V17.2148H6.33203V20.3633H3.74219C3.18221 20.3633 2.72656 19.9076 2.72656 19.3477V11.1211C2.72656 10.5611 3.18221 10.1055 3.74219 10.1055H23.6484C24.2084 10.1055 24.6641 10.5611 24.6641 11.1211V19.3477ZM16.9961 4.0625V6.09375H10.3945V4.0625H16.9961Z" fill="#153AB2"/>
</svg>
