<svg width="87" height="102" viewBox="0 0 87 102" fill="none" xmlns="http://www.w3.org/2000/svg">
<path fill-rule="evenodd" clip-rule="evenodd" d="M62.4353 16.2097C62.4353 11.6993 66.1052 8.0293 70.6165 8.0293C75.1269 8.0293 78.7969 11.6993 78.7969 16.2097C78.7969 20.7209 75.1269 24.3901 70.6165 24.3901C66.1052 24.3909 62.4353 20.7209 62.4353 16.2097ZM74.8125 16.2097C74.8125 13.8961 72.93 12.0137 70.6165 12.0137C68.3021 12.0137 66.4196 13.8961 66.4196 16.2097C66.4196 18.5233 68.3021 20.4058 70.6165 20.4058C72.93 20.4065 74.8125 18.5233 74.8125 16.2097Z" fill="#F6F7F8"/>
<path fill-rule="evenodd" clip-rule="evenodd" d="M15.6315 52.1953C20.7652 52.1953 25.1286 53.4747 27.7659 55.5073L34.9105 53.9167C35.9821 53.6778 37.0483 54.354 37.2879 55.4279C37.5269 56.5019 36.8506 57.5664 35.7759 57.8053L30.2997 59.0248C30.4017 59.4224 30.4561 59.8318 30.4561 60.2497C30.4561 62.9562 28.2406 65.269 24.692 66.7134L27.8819 69.995C28.6484 70.7841 28.6305 72.0456 27.8414 72.8121C27.4546 73.1888 26.9535 73.3755 26.4531 73.3755C25.934 73.3755 25.415 73.174 25.0243 72.7724L20.3115 67.9235C18.8516 68.1702 17.282 68.304 15.6315 68.304C7.18023 68.304 0.806786 64.841 0.806786 60.2497C0.806786 55.6583 7.18023 52.1953 15.6315 52.1953ZM15.6315 64.3196C22.1481 64.3196 26.4718 61.8699 26.4718 60.2497C26.4718 59.9104 26.2803 59.5353 25.9216 59.154C25.8601 59.1003 25.8017 59.0435 25.748 58.9812C24.2609 57.5921 20.58 56.1797 15.6315 56.1797C9.11483 56.1797 4.79116 58.6295 4.79116 60.2497C4.79116 61.8699 9.11483 64.3196 15.6315 64.3196Z" fill="#F6F7F8"/>
<path fill-rule="evenodd" clip-rule="evenodd" d="M39.3218 87.4832L36.132 84.2007C35.3654 83.4116 35.3833 82.1509 36.1724 81.3836C36.9607 80.6171 38.2222 80.635 38.9895 81.4241L43.7023 86.2723C45.1622 86.0256 46.7318 85.8917 48.3824 85.8917C56.8336 85.8917 63.207 89.3547 63.207 93.9461C63.207 98.5375 56.8336 102 48.3824 102C39.9311 102 33.5577 98.5375 33.5577 93.9461C33.5577 91.2395 35.7732 88.9267 39.3218 87.4832ZM48.3824 98.0161C54.899 98.0161 59.2227 95.5663 59.2227 93.9461C59.2227 92.3259 54.899 89.8761 48.3824 89.8761C41.8657 89.8761 37.5421 92.3259 37.5421 93.9461C37.5421 95.5663 41.8657 98.0161 48.3824 98.0161Z" fill="#F6F7F8"/>
<path fill-rule="evenodd" clip-rule="evenodd" d="M51.3384 54.3416C51.1921 54.3743 51.0473 54.3898 50.9034 54.3898C49.9906 54.3898 49.1672 53.7579 48.961 52.8303C48.7221 51.7564 49.3983 50.6918 50.4723 50.4529L55.9492 49.2327C55.8465 48.8351 55.7928 48.4265 55.7928 48.0078C55.7928 44.2748 59.9453 41.7535 64.7016 40.6196L55.8123 22.8152C55.7982 22.7864 55.7842 22.7569 55.771 22.7273C54.866 20.6674 54.4068 18.4752 54.4068 16.2106C54.4068 7.27226 61.6783 0 70.6175 0C79.5559 0 86.8281 7.27226 86.8281 16.2106C86.8281 18.4744 86.369 20.6666 85.4632 22.7273C85.4507 22.7569 85.4367 22.7864 85.4219 22.8152L76.524 40.6375C81.2928 41.7986 85.4422 44.3207 85.4422 48.0086C85.4422 52.6 79.0687 56.0622 70.6175 56.0622C65.4837 56.0622 61.1196 54.7828 58.4823 52.7509L51.3384 54.3416ZM82.8437 16.2106C82.8437 9.46912 77.359 3.98438 70.6175 3.98438C63.8759 3.98438 58.3912 9.46912 58.3912 16.2106C58.3912 17.904 58.7305 19.5421 59.3997 21.0806L70.6175 43.5488L81.8344 21.0806C82.5045 19.5413 82.8437 17.9032 82.8437 16.2106ZM81.4578 48.0086C81.4578 46.9619 78.8633 45.1425 74.6898 44.3114L72.3995 48.8981C72.0626 49.5736 71.3723 50 70.6175 50C69.8626 50 69.1724 49.5736 68.8346 48.8981L66.5389 44.2989C62.318 45.0997 59.7772 46.9145 59.7772 48.0078C59.7772 48.3479 59.9702 48.7246 60.3305 49.1074C60.3912 49.1611 60.4488 49.2172 60.5025 49.2779C61.9896 50.6662 65.6705 52.0778 70.6175 52.0778C77.1341 52.0778 81.4578 49.6288 81.4578 48.0086Z" fill="#F6F7F8"/>
<path fill-rule="evenodd" clip-rule="evenodd" d="M32.0078 75.1055C33.1051 75.1055 34 75.9996 34 77.0977C34 78.1949 33.1051 79.0898 32.0078 79.0898C30.9106 79.0898 30.0156 78.1949 30.0156 77.0977C30.0156 75.9996 30.9106 75.1055 32.0078 75.1055Z" fill="#F6F7F8"/>
<path fill-rule="evenodd" clip-rule="evenodd" d="M43.1289 56.1211C42.0316 56.1211 41.1367 55.2262 41.1367 54.1289C41.1367 53.0316 42.0316 52.1367 43.1289 52.1367C44.2262 52.1367 45.1211 53.0316 45.1211 54.1289C45.1211 55.2262 44.2262 56.1211 43.1289 56.1211Z" fill="#F6F7F8"/>
</svg>
