<svg width="95" height="26" viewBox="0 0 95 26" fill="none" xmlns="http://www.w3.org/2000/svg">
<path fill-rule="evenodd" clip-rule="evenodd" d="M81.8867 0C74.7075 0 68.8867 5.82075 68.8867 13C68.8867 20.1793 74.7075 26 81.8867 26C89.066 26 94.8867 20.1793 94.8867 13C94.8867 5.82075 89.066 0 81.8867 0ZM81.8879 2.16695C87.8615 2.16695 92.7213 7.02679 92.7213 13.0003C92.7213 18.9738 87.8615 23.8336 81.8879 23.8336C75.9144 23.8336 71.0546 18.9738 71.0546 13.0003C71.0546 7.02679 75.9144 2.16695 81.8879 2.16695ZM77.5553 10.8333H79.722V9.00025C79.722 7.35792 80.5865 6.49992 82.5343 6.49992H85.1386V9.20825H83.5765C83.076 9.20825 82.972 9.413 82.972 9.93084V10.8333H85.1386L84.9436 12.9999H82.972V19.4999H79.722V12.9999H77.5553V10.8333Z" fill="#B5B9BC"/>
<path fill-rule="evenodd" clip-rule="evenodd" d="M47.8867 0C40.7075 0 34.8867 5.82075 34.8867 13C34.8867 20.1793 40.7075 26 47.8867 26C55.066 26 60.8867 20.1793 60.8867 13C60.8867 5.82075 55.066 0 47.8867 0ZM47.888 2.16699C53.8615 2.16699 58.7214 7.02682 58.7214 13.0003C58.7214 18.9738 53.8615 23.8337 47.888 23.8337C41.9145 23.8337 37.0547 18.9738 37.0547 13.0003C37.0547 7.02682 41.9145 2.16699 47.888 2.16699ZM50.5107 7.71004C49.8249 7.67862 49.6191 7.67212 47.8836 7.67212C46.1481 7.67212 45.9423 7.67754 45.2576 7.70895C43.4939 7.78912 42.6728 8.62437 42.5926 10.374C42.5623 11.0586 42.5547 11.2645 42.5547 13C42.5547 14.7355 42.5623 14.9413 42.5926 15.626C42.6739 17.3712 43.4918 18.2097 45.2576 18.291C45.9423 18.3224 46.1481 18.3289 47.8836 18.3289C49.6202 18.3289 49.8249 18.3213 50.5107 18.291C52.2744 18.2108 53.0944 17.3734 53.1757 15.626C53.206 14.9413 53.2125 14.7355 53.2125 13C53.2125 11.2645 53.206 11.0597 53.1757 10.374C53.0944 8.62545 52.2733 7.7902 50.5107 7.71004ZM47.8867 6.5C46.1209 6.5 45.901 6.50758 45.2066 6.54008C42.8449 6.64842 41.5341 7.95817 41.4257 10.3198C41.3943 11.0142 41.3867 11.2353 41.3867 13C41.3867 14.7658 41.3943 14.9868 41.4257 15.6802C41.5341 18.0408 42.8449 19.3527 45.2066 19.461C45.901 19.4924 46.1209 19.5 47.8867 19.5C49.6526 19.5 49.8736 19.4924 50.568 19.461C52.9253 19.3527 54.2416 18.0429 54.3477 15.6802C54.3791 14.9868 54.3867 14.7658 54.3867 13C54.3867 11.2353 54.3791 11.0142 54.3477 10.3198C54.2416 7.96142 52.9296 6.64733 50.568 6.54008C49.8736 6.50758 49.6526 6.5 47.8867 6.5ZM44.5469 12.9999C44.5469 11.156 46.0419 9.66211 47.8846 9.66211C49.7274 9.66211 51.2224 11.1571 51.2224 12.9999C51.2224 14.8437 49.7274 16.3376 47.8846 16.3376C46.0419 16.3376 44.5469 14.8437 44.5469 12.9999ZM47.8854 15.1668C46.6883 15.1668 45.7188 14.1972 45.7188 13.0002C45.7188 11.8042 46.6883 10.8335 47.8854 10.8335C49.0814 10.8335 50.0532 11.8031 50.0532 13.0002C50.0532 14.1972 49.0814 15.1668 47.8854 15.1668ZM50.5742 9.53098C50.5742 9.09981 50.9241 8.75098 51.3542 8.75098C51.7865 8.75098 52.1353 9.09981 52.1353 9.53098C52.1353 9.96214 51.7854 10.311 51.3542 10.311C50.9231 10.311 50.5742 9.96106 50.5742 9.53098Z" fill="#B5B9BC"/>
<path fill-rule="evenodd" clip-rule="evenodd" d="M0.886719 13C0.886719 5.82075 6.70747 0 13.8867 0C21.066 0 26.8867 5.82075 26.8867 13C26.8867 20.1793 21.066 26 13.8867 26C6.70747 26 0.886719 20.1793 0.886719 13ZM24.7214 13.0003C24.7214 7.02682 19.8615 2.16699 13.888 2.16699C7.91452 2.16699 3.05469 7.02682 3.05469 13.0003C3.05469 18.9738 7.91452 23.8337 13.888 23.8337C19.8615 23.8337 24.7214 18.9738 24.7214 13.0003Z" fill="#B5B9BC"/>
<path d="M21.2458 15.5543C20.8949 15.1418 20.4962 14.772 20.1106 14.4144C19.9735 14.2872 19.8318 14.1558 19.6951 14.025C19.3028 13.6493 19.2885 13.5081 19.5991 13.0813C19.814 12.7871 20.0419 12.4925 20.2622 12.2076C20.4621 11.9491 20.6688 11.6818 20.8669 11.4136L20.9076 11.3585C21.2862 10.8453 21.6778 10.3146 21.8861 9.67448C21.9403 9.50559 21.9971 9.25706 21.8672 9.04923C21.7373 8.84159 21.4855 8.77824 21.3073 8.74865C21.2192 8.734 21.1317 8.732 21.0504 8.732L18.5709 8.73027L18.5504 8.73009C18.1756 8.73009 17.9229 8.90315 17.7781 9.25923C17.6399 9.59944 17.4881 9.96173 17.3148 10.3062C16.9701 10.9921 16.5322 11.7822 15.8986 12.4411L15.8718 12.4691C15.797 12.5479 15.7122 12.6371 15.6502 12.6371C15.6407 12.6371 15.6304 12.6353 15.6187 12.6317C15.4874 12.5816 15.3994 12.2704 15.4033 12.1256C15.4034 12.1236 15.4034 12.1216 15.4034 12.1196L15.4017 9.31232C15.4017 9.30259 15.401 9.29295 15.3997 9.2833C15.3366 8.82694 15.1969 8.54287 14.669 8.44158C14.655 8.43885 14.6407 8.4375 14.6264 8.4375H12.0482C11.6281 8.4375 11.3967 8.60474 11.1791 8.85506C11.1204 8.92197 10.9981 9.06127 11.0587 9.23025C11.1202 9.40174 11.3198 9.43842 11.3847 9.45032C11.7073 9.51046 11.8891 9.70372 11.9406 10.0414C12.0305 10.6278 12.0416 11.2537 11.9754 12.0112C11.9569 12.2217 11.9204 12.3843 11.8603 12.5232C11.8463 12.5556 11.7968 12.6614 11.7462 12.6615C11.7302 12.6615 11.6837 12.6553 11.5992 12.5982C11.3992 12.464 11.2528 12.2725 11.0822 12.0359C10.5019 11.2324 10.0148 10.3473 9.59301 9.32944C9.43657 8.95473 9.1444 8.74495 8.76995 8.73878C8.35851 8.73266 7.98549 8.7297 7.62971 8.7297C7.24098 8.7297 6.88059 8.73322 6.52868 8.74039C6.22742 8.7456 6.01904 8.83407 5.90939 9.00352C5.79956 9.17311 5.80671 9.39588 5.93063 9.66553C6.92269 11.826 7.82217 13.3969 8.84722 14.7591C9.56547 15.7123 10.2859 16.3721 11.1142 16.8353C11.9868 17.3244 12.9648 17.5621 14.1038 17.5621C14.2329 17.5621 14.3664 17.559 14.5011 17.5529C15.1629 17.5213 15.4085 17.2866 15.4395 16.6553C15.4543 16.3327 15.4903 15.9943 15.6522 15.7058C15.7544 15.524 15.8497 15.524 15.881 15.524C15.9413 15.524 16.0161 15.5512 16.0964 15.6022C16.2405 15.6943 16.364 15.8177 16.4653 15.9255C16.5606 16.0279 16.6549 16.1313 16.7492 16.2348C16.9528 16.4582 17.1633 16.6892 17.3832 16.9082C17.8646 17.3879 18.3948 17.5989 19.0039 17.5531H21.2772C21.282 17.5531 21.2869 17.5529 21.2917 17.5526C21.5183 17.538 21.7144 17.4149 21.83 17.2149C21.9731 16.9672 21.9702 16.6512 21.8223 16.3694C21.6544 16.0507 21.4366 15.7785 21.2458 15.5543Z" fill="#B5B9BC"/>
</svg>
